<svg xmlns="http://www.w3.org/2000/svg" fill="#45668e" viewBox="0 0 1000 1000"><path d="M882.3 612.6s79.2 78.3 98.8 114.5c.5.8.8 1.4.9 1.7 8 13.4 9.9 23.9 6 31.6-6.6 12.8-29 19.2-36.6 19.7h-140c-9.8 0-30-2.5-54.7-19.6-18.9-13.2-37.6-34.9-55.8-56.1-27.1-31.5-50.6-58.8-74.4-58.8-3 0-6 .5-8.8 1.5-18 5.7-40.8 31.3-40.8 99.6 0 21.4-16.9 33.5-28.7 33.5h-64.1c-21.9 0-135.6-7.6-236.5-114C123.9 535.9 12.8 274.6 11.8 272.3c-6.9-16.9 7.6-26.1 23.3-26.1h141.4c19 0 25.1 11.5 29.4 21.8 5 11.8 23.5 59 53.9 112.1 49.2 86.3 79.4 121.5 103.6 121.5 4.6 0 8.9-1.1 12.9-3.4 31.6-17.3 25.7-130 24.2-153.3 0-4.5 0-50.3-16.2-72.5-11.6-15.9-31.3-22.1-43.2-24.3 3.2-4.6 9.9-11.7 18.6-15.8 21.6-10.8 60.7-12.3 99.4-12.3h21.5c42 .6 52.9 3.3 68.2 7.2 30.8 7.4 31.4 27.3 28.7 95.2-.8 19.4-1.6 41.3-1.6 67 0 5.5-.2 11.6-.2 17.8-.9 34.8-2.2 74.1 22.4 90.2 3.1 2 6.8 3 10.6 3 8.5 0 34.1 0 103.3-118.8 30.4-52.5 53.9-114.4 55.5-119 1.4-2.6 5.5-9.9 10.5-12.8 3.8-2.4 8.9-2.7 11.6-2.7H956c18.1 0 30.4 2.7 32.8 9.6 4 11.1-.8 45.1-76.7 147.8-12.8 17.1-24 31.9-33.9 44.8-68.8 90.1-68.8 94.7 4.1 163.3z"/></svg>